<svg id="visual" viewBox="0 0 900 600" width="900" height="600" xmlns="http://www.w3.org/2000/svg" xmlns:xlink="http://www.w3.org/1999/xlink" version="1.1"><path d="M711 600L702.7 593.3C694.3 586.7 677.7 573.3 676.3 560C675 546.7 689 533.3 685.5 520C682 506.7 661 493.3 662.3 480C663.7 466.7 687.3 453.3 696.5 440C705.7 426.7 700.3 413.3 691.7 400C683 386.7 671 373.3 671.7 360C672.3 346.7 685.7 333.3 693.3 320C701 306.7 703 293.3 706.2 280C709.3 266.7 713.7 253.3 703 240C692.3 226.7 666.7 213.3 653.2 200C639.7 186.7 638.3 173.3 641.7 160C645 146.7 653 133.3 661.8 120C670.7 106.7 680.3 93.3 681.7 80C683 66.7 676 53.3 674 40C672 26.7 675 13.3 676.5 6.7L678 0L900 0L900 6.7C900 13.3 900 26.7 900 40C900 53.3 900 66.7 900 80C900 93.3 900 106.7 900 120C900 133.3 900 146.7 900 160C900 173.3 900 186.7 900 200C900 213.3 900 226.7 900 240C900 253.3 900 266.7 900 280C900 293.3 900 306.7 900 320C900 333.3 900 346.7 900 360C900 373.3 900 386.7 900 400C900 413.3 900 426.7 900 440C900 453.3 900 466.7 900 480C900 493.3 900 506.7 900 520C900 533.3 900 546.7 900 560C900 573.3 900 586.7 900 593.3L900 600Z" fill="#bfd200" stroke-linecap="round" stroke-linejoin="miter"></path></svg>